<svg width="100" height="100" xmlns="http://www.w3.org/2000/svg"><g fill-rule="nonzero" fill="#008752"><path d="M14.717 60.531v.01l-.025-.004.025-.006"/><path d="M37.357 54.8c-.125.182-.372.457-.498.637-2.035 2.71-4.498 5.686-7.3 7.186-1.068.697-2.308 1.132-3.923 1.378-3.057.14-6.055-.148-7.104-3.2-.143-.568-.302-1.39-.302-2.22 0-.802.148-1.612.601-2.213l.018-.024.012-.027c.386-.903.92-1.734 1.487-2.531.075-.107.151-.214.228-.318.07-.097.173-.189.175-.315.001-.067-.003-.07.042-.128a.755.755 0 00.144-.358.583.583 0 01.12-.298c.08-.12.167-.26.206-.432.058-.156.086-.301.086-.433 0-.306-.127-.552-.235-.761l-.155-.337-.042-.056c-.33-.32-.517-.8-.697-1.262l-.089-.226-.105-.576c-.083-.414-.163-.813-.163-1.216 0-.176.015-.353.052-.533.444-2.315 1.123-4.62 3.075-5.81 1.773-1.341 4.204-1.242 6.347-1.046 2.499.463 5.005 1.979 7.641 4.632.545.549 1.058 1.088 1.702 1.528.623.424 1.31.757 2.034.97a7 7 0 001.098.227c.326.041.702.114 1.006-.049.058-.03.097-.094.157-.124.056-.03.128-.03.18-.057.141-.074.085-.158-.06-.205-.107-.036-.176-.06-.285-.09-.079-.021-.162-.065-.239-.097a2.488 2.488 0 01-.527-.31c-.332-.247-.617-.551-.901-.85-.243-.254-.493-.518-.756-.736l-.027-.022-.032-.014c-.126-.055-.244-.166-.37-.284a1.919 1.919 0 00-.44-.33l-1.243-1.012c-.193-.157-.393-.306-.587-.462a2.238 2.238 0 01-.252-.232c-.063-.069-.164-.091-.24-.143a.848.848 0 01-.161-.137.43.43 0 00-.106-.086c-.035-.02-.095-.036-.122-.057-.017-.014-.016-.04-.033-.051-.019-.013-.044-.006-.06-.016-.072-.046-.13-.116-.2-.166l-.267-.188-.536-.374c-.374-.259-.75-.515-1.13-.767a40.67 40.67 0 00-2.732-1.68c-.226-.098-.419-.219-.624-.347-.272-.17-.557-.338-.877-.437a.606.606 0 00-.442-.217c-.098-.01-.105-.014-.125-.04l-.093-.125-.153.032c-.137.027-.235-.02-.41-.115-.1-.054-.216-.11-.35-.15a.424.424 0 00-.401-.108c-.671-.265-1.377-.451-2.061-.627l-.855-.225-.022.003-.264.03c-.116.023-.148.026-.193.001l-.055-.03h-.236c-1.11 0-2.368-.002-3.397.524l-.428.219.022.01a2.74 2.74 0 00-.753.488c-.263.093-.481.27-.67.44l-.265.226.073-.037c-.159.05-.266.183-.351.29l-.085.096-.056.033-.06.111-.13.068-.06.056a12.458 12.458 0 00-2.606 8.173c.11 1.213.524 2.338 1.307 3.555.2.28.406.556.641.807.112.118.23.231.356.333.06.047.121.096.187.135.065.039.137.038.205.071.037.082-.115.144-.146.205-.048.097-.08.245-.18.315a7.418 7.418 0 00-1.863 1.96l-.018.029-.01.031c-.14.45-.397.847-.668 1.268-.31.48-.63.978-.775 1.569.006-.021-.22.542-.22.542-.153.35-.305.714-.366 1.128-.002.019-.036.05-.046.07a.679.679 0 00-.045.085c-.021.05-.025.117-.052.163-.014.024-.015.009-.033.021-.031.023-.031.06-.035.104-.01.107-.006.217-.006.325 0 .135.003.268.003.403 0 .057-.014.154.03.192.035.03.037.046.025.083a.48.48 0 00-.029.153c0 .062 0 .128.021.187.038.098.128.04.207.021l.006.013c-.037.134-.074.172-.075.173-.03.022-.064.03-.086.064-.02.033-.026.075-.033.113-.013.072-.027.14-.027.216 0 .059.003.116.01.173.005.052 0 .105.003.157.004.044.024.08.027.125.01.108.016.215.024.323l.018.254c0 .013.017.09.007.102l.121-.138c.022-.024.046-.078.082-.08.084-.001.09.182.102.238l.007-.006c-.011.07-.023.138-.023.206 0 .14.023.267.062.334l.128.216.214-.131c.021-.014.025-.033.043-.045l.09.002.005.141.025.399.015.02.113.358c.04.151.086.302.157.439-.002.02-.004.042-.004.062 0 .315.15.605.424.81l.234.176.166.346.105-.227c.017.038.034.076.05.116l.15.33.103.01c.02.006.031.019.078.104l.25.32.038-.02c.097.027.228.142.355.252.184.162.394.344.654.413 1.237.456 2.604.898 4.067.996 2.94.237 5.894-.721 8.777-2.851 2.465-1.82 4.828-4.455 7.023-7.83l.932-1.424.309-.375c.06-.07.151-.118.194-.2.054-.102.113-.195.183-.29.147-.201.301-.397.447-.6l.937-1.3c.14-.126.244-.28.34-.434.09-.147.174-.285.282-.37l.027-.023.02-.028c.197-.279.37-.599.539-.907.196-.364.393-.731.648-1.056.126-.16.267-.312.43-.437.064-.05.133-.115.204-.156.098-.057.157-.099.252-.161.127-.083.16-.18.005-.215-.058-.013-.127.006-.19-.007-.065-.014-.119-.064-.183-.079-.336-.078-.68.09-.985.216a7.023 7.023 0 00-2.711 1.972c-.508.592-.863 1.246-1.246 1.918-.28.49-.686 1.047-.974 1.486M45.765 17.514c-.016 0-.03-.001-.047.004-.107.032-.153.135-.227.206-.09.086-.192.156-.28.246-.166.172-.301.366-.448.553l-.306.389c-.479.296-1.108.291-1.45.11l-.021-.012-.024-.007c-.054-.016-.106-.073-.167-.138-.082-.09-.165-.138-.26-.2-.07-.046-.1-.082-.108-.17-.003-.041.075-.449.103-.442-.06-.014-.078-.037-.145-.175l-.142-.265-.098-.01c-.188-.047-.4-.16-.605-.268l-.195-.1c-.13-.246-.415-.272-.57-.277-.084-.003-.17-.019-.254-.028-.082-.01-.29.003-.348-.057-.048-.05.002-.072-.025-.12-.065-.112-.193.021-.273.043-.09.024-.196.017-.29.032-.153.026-.38.078-.384.274-.251.1-.319-.145-.55-.213a1.55 1.55 0 00-.348-.063c-.104-.006-.2.03-.3.022-.11-.009-.201-.076-.308-.095-.119-.022-.215.042-.325.078-.277.09-.534.231-.788.372-.304.169-.59.328-.884.37l-.047.008-.04.023c-.886.514-1.678.998-2.405 1.731-1.787 1.77-2.868 3.923-3.302 6.583a9.015 9.015 0 00-.193 1.838c0 1.843.795 4.73 1.38 5.629 1.062 1.634 3.833 5.004 6.601 6.879.697.486 1.365 1.077 2.073 1.702.924.816 1.88 1.66 2.943 2.274l.037.021.07.013c.129.023.52.093.687-.27.273-.539-.23-.951-.567-1.28a23.625 23.625 0 01-1.273-1.371l-.664-.764a44.182 44.182 0 00-1.709-1.896c-.158-.206-.343-.358-.512-.557-.09-.106-.222-.175-.33-.26-.216-.168-.456-.328-.6-.524-.18-.24-.369-.292-.572-.492-.271-.267-.401-.636-.664-.912-.306-.321-.596-.656-.875-1a20.285 20.285 0 01-1.382-1.926c-.621-.985-.792-3.508-.792-4.806 0-1.113.216-2.214.848-3.24 1.174-1.874 3.063-2.951 5.612-3.2.19.004.366-.059.523-.114.251-.088.341-.105.415-.04l.077.07.104-.008c.358-.025.675.09 1.01.21.271.098.553.195.87.228 1.202.445 2.358-.482 3.288-1.231l.276-.22.63-.292c.324-.164.63-.318.96-.4l.026-.007.024-.012c1.641-.82 4.212-1.526 6.055-.818l.013.006.013.003c1.871.483 3.107 2.027 3.887 4.861.116.463.146.925.167 1.383.135 2.96-3.593 7.831-4.362 8.628L52.9 35.185c-1.069.928-2.124 1.874-3.115 2.886-.98 1.002-1.902 2.072-2.665 3.25-.361.558-.686 1.14-.955 1.749a9.89 9.89 0 00-.348.9c-.051.153-.084.315-.14.465-.043.114-.138.239-.11.369.01.054.048.066.078.104.044.055.042.064.054.14.055.372.401-.113.48-.225.26-.372.543-.69.872-1.01.297-.288.594-.58.835-.92.095-.133.206-.268.27-.422.06-.148.097-.269.19-.408.283-.427.67-.744 1.04-1.097.486-.46.985-.939 1.383-1.468 1.884-1.636 3.567-3.584 5.193-5.47l1.575-1.808.503-.71c.429-.59 3.77-4.658 4.018-7.804.032-.415.147-.787.147-1.16 0-.906-.256-1.735-.505-2.546l-.275-.945-.025-.04c-.194-.285-.324-.6-.463-.933-.172-.416-.356-.844-.668-1.21-.19-.508-.645-.83-1.053-1.112-.257-.177-.5-.345-.656-.538l-.028-.035-.038-.023c-1.173-.694-2.53-1.062-4.267-1.158-.41-.012-.822.001-1.231.036a11.097 11.097 0 00-3.909 1.09 11.382 11.382 0 00-2.942 2.076c-.058.057-.122.106-.18.16-.044.04-.08.11-.134.138-.022.01-.044.009-.066.008"/><path d="M44.445 24.749a6.727 6.727 0 00-.011.4l.02-.029-.04.057-.05.122c-.002.848-.142 1.777-.294 2.618l-.004.025.001.025c.004.092.006.184.006.276 0 .588-.083 1.175-.165 1.744-.083.582-.168 1.178-.168 1.79 0 .166.007.334.02.503-.064.48-.093.952-.093 1.419 0 1.267.195 1.807.392 2.996l.223 1.193.034.518c.014.308.049.604.097.907.027.167.016.45.186.559.107.067.124-.035.16-.108.085-.171.312-.24.415-.408.1-.163.126-.354.146-.538.015-.143.03-.278.086-.37l.009-.014.006-.015c.198-.456.26-.95.32-1.43.05-.4.097-.78.22-1.134.281-.726.368-1.508.368-2.287 0-.652-.061-1.302-.118-1.916a1.178 1.178 0 00-.086-.394c-.104-.228-.144-.47-.192-.713-.092-.406-.18-.792-.18-1.223 0-.076.003-.154.01-.233l.007-.114-.094-.079a2.378 2.378 0 01-.028-.373l.001-.2c.002-.067.003-.136.003-.204 0-.283-.02-.566-.137-.815l-.02-.043-.037-.032c-.05-.044-.07-.109-.07-.19 0-.114.038-.262.088-.437.025-.085.06-.179.058-.268-.191-.007-.051-.28-.08-.385-.023-.085-.082-.125-.145-.191-.102-.107-.04-.196.012-.308-.243-.291-.366-.615-.433-.971-.06-.31-.003-.717-.251-.96-.168-.166-.084.135-.066.215.03.139-.023.322-.045.46-.03.186-.07.365-.08.555M67.662 28.046c-3.148.793-6.007 2.113-7.811 4.237-1.604 1.887-3.191 3.787-4.781 5.685-.806.963-1.63 1.885-2.429 2.845-.439.529-.887 1.05-1.33 1.574-.829.977-1.71 1.9-2.604 2.816-.126.13-.82.507-.714.72.154.302 1.093-.289 1.248-.364 1.412-.689 2.806-1.386 4.034-2.375.493-.396 1.005-.77 1.468-1.203.476-.446.868-.973 1.297-1.462 1.007-1.145 2.05-2.259 3.099-3.366l1.165-1.18.686-.685a35.527 35.527 0 012.682-1.793c2.002-.954 3.753-1.454 5.489-1.563.488.059.997.067 1.49.073.592.008 1.205.015 1.769.115l.031.006.032-.002c.96-.082 1.753.31 2.593.724l.543.262c1.92 1.086 3.013 3.01 3.013 5.155 0 .54-.07 1.094-.212 1.652-.28 1.094-.782 2.139-1.329 3.122-.429.772-1.748 1.86-.916 2.658.49.47 2.186 1.195 2.611 3.875.496 3.126-.214 5.478-1.362 7.275-.81 1.147-1.92 1.99-2.995 2.805l-.906.698c-1.615 1.313-4.434 1.06-5.937.361-1.503-.7-6.422-3.395-9.298-6.378l-.7-.674c-.612-.59-1.154-1.262-1.755-1.865a20.696 20.696 0 00-1.914-1.718c-1.286-1-2.768-1.803-4.407-1.985a6.677 6.677 0 00-1.717.03c-.194.029-.426.02-.607.099-.219.095-.075.191.094.213.166.023.248.07.374.186.318.288.72.476 1.076.712.407.272.795.572 1.168.889.758.646 1.455 1.363 2.134 2.091l.223.24c1.054 1.242 2.386 2.579 4.065 4.077.443.356 6.384 5.035 7.82 5.943l2.077 1.338c.02.01.985.562.985.562.87.513 1.769 1.044 2.782 1.276l.685.185c.84.234 1.71.477 2.67.484 1.768.208 3.664-.459 5.312-1.88 2.635-1.704 4.59-3.983 5.365-6.258.613-1.22.858-2.574.858-3.907a12.62 12.62 0 00-.88-4.544c-.343-1.048-1.088-1.907-1.809-2.738-.396-.456-.816-.927-.808-1.58.01-.7.252-1.426.685-1.976l.095-.128c.133-.182.283-.39.445-.434l.096-.027.056-.097.079-.058c.072-.046.227-.154.258-.34l.064.002.101-.078.014-.014c.11-.097.146-.192.146-.271a.301.301 0 00-.026-.119l-.046-.105a.875.875 0 00.122-.34l.041-.33c.04-.067.084-.133.117-.202-.38.18-.224-.284-.13-.485.074-.16.163-.32.295-.441.123-.113.324-.12.41-.264.025-.04.03-.08.033-.118h.046c.035 0 .025-.288.019-.316-.022-.115-.087-.174-.062-.306.045-.233.262-.433.328-.67-.063.027-.138.158-.21.07-.04-.049.036-.216.049-.265-.162.19-.11-.09-.08-.168.063-.16.133-.33.252-.457-.006-.122-.008-.245-.013-.366a.365.365 0 00.023-.12.36.36 0 00-.032-.144l-.025-.054-.07-.054a.608.608 0 00-.113-.073l-.052-.38a.855.855 0 00.151-.465c0-.233-.077-.46-.14-.65-.05-.17-.1-.34-.152-.507-.125.072-.202.264-.267-.013-.082-.348.101-.838-.331-1.034-.048-.325-.249-.632-.483-.844-.064-.363-.292-.605-.502-.815-.185-.184-.344-.343-.38-.565l-.026-.158-.154-.04c-.206-.056-.32-.206-.463-.396-.119-.156-.253-.334-.458-.469l-.054-.035c-.08-.155-.19-.235-.33-.244-1.079-1.094-2.714-1.762-3.92-2.251l-.017-.007-.019-.004c-2.805-.666-6.033-.609-9.087.162"/><path d="M84.324 38.625v.008l-.045.091c.03-.032.023-.066.044-.1M31.41 48.152c-.468.039-.87.274-1.257.502-.444.26-.864.506-1.325.406l-.089-.019-.076.055c-.127.09-.292.119-.467.15-.172.03-.362.077-.541.177-.246-.064-.467-.021-.661.032l-.328.068-.632.102c-.558.09-1.116.2-1.661.362-.462.138-1.01.217-1.439.444-.053.36.632.163.812.165.451.007.87.196 1.334.175.486-.022.969-.103 1.453-.148.531-.05 1.033-.096 1.505-.03l.033.004.033-.006c.786-.146 1.515-.09 2.287-.033.668.05 1.359.101 2.097.014 1.272.155 2.406-.261 3.501-.667.366-.135.733-.27 1.105-.384.134-.042.293-.045.408-.143.044-.038.063-.083.115-.112.042-.022.096-.017.14-.038.05-.024.135-.13.177-.172.073-.073.102-.142.078-.25a.298.298 0 00-.19-.227c-.469-.167-1.002-.169-1.49-.25-.534-.089-1.072-.178-1.615-.177-.507.001-.871.161-1.363.198-.648.048-1.291-.266-1.944-.198M72.024 44.471l-.5.025h-.016l-2.409.072c-1.15.042-2.239.081-3.37.076-1.045-.325-2.217-.173-3.353-.022-.362.048-.722.096-1.085.129a9.545 9.545 0 01-.549.035c-.148.005-.277.062-.422.081-.087.012-.158-.053-.243-.056-.077-.002-.174.048-.25.065-.194.042-.39.07-.586.098-.502.07-1.02.149-1.475.448-.339.07-.665.18-.978.289-.493.169-.959.329-1.472.34h-.02l-.02.005c-.212.054-.333.231-.514.349-.16.104-.545.134-.555.242-.01.108.529.15.722.227.302.12.6.255.92.277l.045.003.041-.02c.477-.213.838-.059 1.257.12.261.111.527.214.804.24.132.011.317.034.44-.036.124-.072.167-.148.327-.094.717.24 1.566.118 2.301.084.874-.041 1.746-.125 2.616-.226.728-.084 1.456-.18 2.182-.278l.042-.005.037-.024c.168-.11.374-.154.593-.2.255-.054.576-.094.758-.355.034-.05-.002-.091.072-.134.104-.062.22-.006.326.002.133.01.272-.022.404-.025.262-.007.523.016.785.042l.016.002.018-.003c.28-.029.512-.178.716-.311.198-.128.37-.236.57-.246.491.184.97.095 1.436.004.317-.063.63-.051.945-.091.158-.021.442-.104.587-.222.087-.073.094-.163.213-.215.22-.097.53.162.692-.183.154-.33-.426-.329-.605-.385a3.507 3.507 0 00-1.443-.124M51.197 57.903a10.617 10.617 0 01-1.734-1.531c-.344-.366-.603-.634-.894-1.043-.132-.185-.3-.391-.369-.603-.03-.092-.014-.132-.08-.22-.04-.056-.099-.091-.13-.155-.035-.074.02-.126-.023-.216s-.163-.12-.216-.207c-.028-.044-.037-.116-.052-.166l-.118-.374c-.15-.412-.2-.687-.216-1.227-.003-.104.102-.893.323-.713.047.038.041.182.064.236.085.193.318.376.456.535.324.374.69.582 1.108.835.299.17.628.482.952.722.414.303.7.552.998.94.359.467.943.575 1.38.945.451.38.892.774 1.35 1.146 2.59 2.108 5.737 5.41 7.409 7.977a20.98 20.98 0 012.807 6.55c.66 2.727.56 5.246-.293 7.465-1.202 4.37-5.062 7.838-8.974 8.057-2.184-.163-4.247-.419-5.854-1.739-.275-.503-.7-.896-1.055-1.218-.33-.298-.88-.675-1.335-.704a1.903 1.903 0 00-.875.154c-.307.136-.29.208-.39.505-.056.166-.143.212-.307.276-.145.057-.302.062-.448.104-.238.07-.448.236-.655.366-.265.165-.517.351-.782.517-.51.318-1.042.607-1.599.837-1.1.452-2.289.634-3.465.415-1.682-.208-2.822-.611-3.756-1.312-1.562-1.013-2.895-2.95-3.657-5.31-.008-.126-.006-.146-.006-.167.002-.15-.06-.287-.13-.44 0 0-.111-.267-.116-.284a9.446 9.446 0 01-.27-2.422c.02-1.631.41-3.325 1.125-4.714l.539-1.075c.335-.681.68-1.384 1.065-2.03.98-1.655 2.017-3.235 2.944-4.91l.336-.608c.166-.21.282-.427.405-.656.082-.154.165-.307.258-.455.082-.128.196-.188.278-.294.049-.063.035-.113.067-.17.03-.052.075-.092.104-.142.045-.076.035-.126.069-.203.06-.136.128-.225.174-.364.079-.24.205-.44.383-.617.147-.146.18-.253.264-.435.212-.463.618-.877.914-1.29a48.625 48.625 0 011.893-2.485c.361-.551.777-1.061 1.217-1.601.27-.335.525-.745.83-1.045.32-.33.641-.642.874-1.116.1-.2.29-.452.326-.673.01-.063-.035-.21.002-.26.18-.247.5.539.525.647.128.561.151.858.108 1.323l-.02.417c-.003.055.007.132-.01.185-.031.104-.147.166-.167.272-.02.104.05.143.034.228-.014.074-.065.126-.092.194-.043.11-.017.146-.023.25-.014.236-.132.494-.218.72-.19.5-.385.847-.64 1.316-.43.789-.722 1.243-1.376 2.046-1.546 1.896-2.958 3.723-4.33 5.747a51.861 51.861 0 00-3.785 6.59c-.97 1.85-.578 4.436.284 5.926 1.275 2.14 2.644 3.37 4.057 3.652l.5.079c1.465.236 2.764.264 3.976-.684.466-.172.836-.355 1.23-.549.615-.305 1.282-.626 1.93-.84.722-.238.642-.061 1.199.39.77.629 2.112.663 3.04.987 1.525.53 2.966 1.033 4.563.498 2.777-.772 4.379-4.002 4.908-6.532.116-.52.175-1.08.176-1.687.001-.85-.112-1.792-.338-2.834-.955-3.074-1.995-5.53-3.966-7.54-.695-.942-1.492-1.656-2.336-2.41-.098-.089-.804-.626-.904-.715-.254-.23-1.159-.859-1.44-1.064z"/><path d="M45.918 58.886c-.07.475-.04.957-.388 1.393l-.034.043-.062.505c-.18 1.477-.367 3.005-.35 4.5 0 .067 0 .132.002.197.022.825.205 1.597.383 2.346.113.473.229.961.3 1.454l.006.038.023.034c.261.4.341.904.355 1.422.006.219-.011.437-.01.655.002.167-.065.365-.03.525.027.118.136.22.185.334.1.235-.036.472-.026.709.005.128.12.178.146.27.029.096-.057.224-.074.323a2.138 2.138 0 00-.02.43c.013.482.222.925.512 1.349.147.214.332.42.463.64.134.221.072.474.191.696.127.232.196-.118.215-.198.056-.246-.015-.466-.032-.71-.021-.315.101-.626.092-.946-.005-.219-.031-.436-.056-.65-.024-.212-.05-.428-.056-.645-.003-.094 0-.188.006-.284.101-.274.198-.579.19-.892a1.339 1.339 0 00-.052-.3 1.25 1.25 0 00.134-.62 4.764 4.764 0 00-.015-.244c-.006-.076-.012-.15-.014-.225a.973.973 0 01.078-.455l.016-.033.076-1.94c.05-1.022.1-2.079.072-3.138l-.001-.039c-.094-.654-.158-1.307-.234-1.957-.058-.51-.44-.951-.539-1.447-.026-.132-.167-.196-.213-.315-.05-.137.079-.248.099-.378.023-.146-.036-.32-.064-.466a9.034 9.034 0 00-.221-.83c-.081-.27-.1-.566-.218-.826-.122-.268-.287-.928-.65-1.08-.128.146-.1.353-.14.52a2.52 2.52 0 00-.045.235"/></g></svg>