<svg width="82" height="89" xmlns="http://www.w3.org/2000/svg" xmlns:xlink="http://www.w3.org/1999/xlink"><defs><path id="a" d="M.17.356h73.474V74H.171z"/></defs><g fill="none" fill-rule="evenodd"><g transform="translate(4 8)"><mask id="b" fill="#fff"><use xlink:href="#a"/></mask><path d="M73.647 37.176C73.647 57.516 57.16 74 36.824 74 16.484 74 0 57.515 0 37.176 0 16.841 16.485.356 36.824.356c20.335 0 36.823 16.485 36.823 36.82" fill="#233881" mask="url(#b)"/></g><path d="M60.047 48.99l-5.562-12.381c1.351-1.102 2.21-2.75 2.21-4.598 0-3.318-2.772-6.011-6.194-6.011s-6.194 2.693-6.194 6.01c0 1.832.847 3.468 2.178 4.573L41.24 48.99h-.011l-5.563-12.381c1.352-1.102 2.21-2.75 2.21-4.598 0-3.318-2.772-6.011-6.194-6.011-3.419 0-6.194 2.693-6.194 6.01 0 1.84.853 3.483 2.196 4.587l-5.24 12.393c-.084-.003-.165-.012-.25-.012-3.422 0-6.194 2.69-6.194 6.011C16 58.31 18.772 61 22.194 61s6.195-2.69 6.195-6.01c0-1.75-.775-3.321-2.004-4.42l5.286-12.506 5.486 12.211c-1.438 1.1-2.361 2.8-2.361 4.714 0 3.32 2.772 6.011 6.194 6.011 3.419 0 6.191-2.69 6.191-6.01 0-1.75-.772-3.321-2-4.42l5.294-12.531 5.498 12.236c-1.436 1.1-2.362 2.8-2.362 4.714 0 3.32 2.776 6.011 6.195 6.011C63.228 61 66 58.31 66 54.99c0-3.245-2.644-5.876-5.953-6" fill="#90D2E9"/></g></svg>