<svg height="100" width="100" xmlns="http://www.w3.org/2000/svg"><g fill="none"><path d="M89.67 36.467c5.396 18.737-7.576 40.13-28.96 46.223-21.38 6.096-43.086-3.385-48.49-22.11-5.389-18.723 7.576-37.298 28.962-43.385 21.39-6.096 43.099.561 48.487 19.272z" fill="#569547"/><path d="M88.231 36.978c-5.19-18.02-26.086-24.419-46.663-18.56-20.582 5.86-33.061 23.746-27.866 41.76 5.18 18.028 26.074 27.14 46.658 21.271 20.586-5.862 33.062-26.454 27.871-44.471zm-31.2 37.66c-5.363 1.05-10.626 1.03-15.495.134-1.563-4.58-3.198-14.894 7.79-25.89l-4.565.203c-7.792 7.615-8.896 18.124-7.315 24.72C27.57 70.783 20.028 63.74 18.084 53.91c-3.116-15.717 8.04-30.398 26.432-34.004 18.402-3.59 36.586 2.037 39.7 17.766 3.106 15.717-8.79 33.36-27.185 36.966z" fill="#fff"/><path d="M51.093 47.579c-3.866 4.468-6.935 10.2-6.935 10.2s-1.075-5.441 3.89-11.901" fill="#c0d1a9"/><path d="M48.998 50.56c-.554.941-4.282 6.007-4.282 6.007s.432-3.167 2.565-6.277" fill="#7ca458"/><path d="M47.73 47.496c-4.788 4.651-6.114 10.357-6.114 10.357S43.982 54.37 51.81 49.8" fill="#9fb97d"/><path d="M45.73 50.211c-1.14 1.403-2.99 5.577-2.99 5.577s2.726-3.132 4.558-4.813" fill="#c0d1a9"/><path d="M48.088 46.688c-4.791 4.646-9.855 5.758-9.855 5.758s6.104 1.1 13.93-3.459" fill="#7ca458"/><path d="M46.615 49.705c-4.743 2.395-6.78 2.386-6.78 2.386s3.134-1.643 5.507-3.548" fill="#9fb97d"/><path d="M46.53 49.259c-3.338 3.814-6.817 5.088-6.817 5.088s3.085.595 6.2-2.923" fill="#7ca458"/><path d="M71.259 57.191c-.145-1.263-1.999-1.383-2.692-2.368-.695-.982 3.912.818 3.79-.37-.123-1.19-2.577-1.523-3.734-2.288-1.147-.78 1.694.157 2.071-1.082.374-1.236-1.676-1.003-2.446-1.635-.768-.63 1.5-.085 2.856-.836 1.36-.75-4.46-.99-5.458-1.223-.997-.225.802-.605 2.279-1.685 1.471-1.085.18-1.015-1.128-.69-1.31.318-1.14-.445-1.813-1.82-.686-1.366-1.165-1.433-2.228-1.905-1.057-.47-1.028-.52-1.463-1.275-.422-.767-1.237-1.89-1.914-2.203-.68-.322-1.26-1.173-1.632-1.908-.385-.738-.734-.935-2.076-1.816 0 0-.802 0-.981-.622-.176-.623-.962-.279-1.13.023-.178.295-1.742-.32-1.986-1.518-.25-1.187-1.208-1.135-1.859-1.042-.284.04-.642.53-1.004 1.104-.476-.879-.958-1.72-.978-.748-.017.702.261 1.205.475 1.561-.285.458-.55.868-.77 1.073a20.995 20.995 0 00-.55-.833c-.433-.603.432-1.963-.1-2.498-.528-.534-2.874-.859-1.988-.34.481.27.63 1.527.695 2.843-.398-.47-.882-1.07-1.552-1.914-3.072-3.898-7.262-1.187-5.633-1.718 1.626-.534 5.348 2.942 5.882 4.557.538 1.615-.966-.41-2.704-1.79-1.376-1.08-4.37-1.498-4.657-1.161l-.08-.085c-1.268-.56-2.846-2.467-3.928-1.945-1.079.523 2.886 3.466 1.682 3.393-1.21-.07-2.284-1.568-3.443-1.022-1.165.546-2.945-.036-3.026.236-.09.29.676.585 1.515.98.845.384 1.813.848.409.54-1.402-.307-2.485.339-2.555.835-.07.484 3.45-1.03 6.228 1.197 2.777 2.234-3.983-1.48-6.084-.28-2.107 1.213 1.036.187 4.041 1.886 3.003 1.705-5.07-.482-5.723 1.643-.651 2.137-.668.322.798.992 1.478.67-1.585.673-.465 1.15 1.115.48 6.977-1.371 9.95-.209 2.97 1.161-4.612.283-5.057 1.08-.438.809-1.764 1.781.065 1.929 1.817.147 1.731-.267 4.637-.06 2.905.217-.2.633-.164 1.173.031.544 1.186.168 3.288-.308.311-.073.533-.096.709-.1-1.296 1-3.343 1.92-3.84 2.555-.356.435 3.26.494 3.263-.391 0-.402.405-.457.888-.365-.029.164-.02.32.054.47.577 1.097-1.96 1.851-1.97 2.824-.012.972 4.103-1.362 5.456-1.549 1.348-.178-5.372 2.877-3.135 2.985 1.49.066 3.729-.941 5.399-1.521.346.608.49 1.382-.507 1.963-1.484.876-.318.395-.066 2.148.385 2.658 1.553-1.428 2.466-.921-.486 1.447-1.368 3.785-.896 3.867.378.076.923-1.504 1.317-3.15.287 1.135-.02 3.15.989 4.605 1.273 1.832 1.242-3.575 1.8-2.351.552 1.243.728 5.94 1.553 5.418.437-.279.332-2.993.315-5.484.747 2.087 1.512 4.307 2.123 4.88 1.364 1.293-.741-4.144-.118-6.774a1.01 1.01 0 00.023-.093c.17.873.247 1.804.263 2.421.021 1.464.943-.26 1.633 1.78.7 2.035 1.76 7.63 2.235 7.368.473-.257-2.01-7.65-.296-5.296 1.702 2.341 1.556 4.823 2.641 6.291 1.086 1.468 1.223-.175 1.675-.969.386-.665-4.45-9.875-4.478-11.676 1.436 1.89 2.199 4.768 3.287 6.046.762.894.015-.958-.668-3.362 2.084 3.81 4.195 9.814 4.939 10.325.997.701-.72-3.494.623-2.603 1.35.882-.101 3.42 1.384 1.755 1.478-1.662-4.083-7.955-1.044-6.313 3.034 1.65 3.26 5.454 3.177 3.035-.088-2.412-6.157-5.24-2.787-4.061 3.372 1.168 3.273 4.004 3.648 3.695.387-.312.37-1.569-.634-2.592-1.003-1.026-.227-.658.552-.155.773.497 1.559 1.204 1.754.989.19-.224-1.247-1.422-1.387-2.692z" fill="#ffe940"/></g></svg>