<svg width="100" height="100" xmlns="http://www.w3.org/2000/svg"><g fill-rule="nonzero" fill="none"><path d="M82.793 48.758a46.284 46.284 0 00-1.684-9.14c-.923-3.324-2.086-6.134-3.187-8.221-2.15-4.058-4.005-6.764-5.958-7.116a3.761 3.761 0 00-.648-.053c-1.015 0-2.24.342-3.994.896-1.664.527-3.227 1.124-3.61 1.264-1.767-2.206-1.437-2.002-3.709-4.658a19.103 19.103 0 00-4.077-3.59c-2.051-1.343-4.324-2.13-6.261-2.532a33.195 33.195 0 00-4.204-.582c-.121.097-.269 1.174-.469 2.59-.184 1.305-.414 3.14-.475 3.629-.33-.077-1.296-.269-2.69-.269-1.004 0-2.23.1-3.6.412-2.55.583-6.486 2.018-10.187 4.175-4.291 2.5-6.772 4.98-7.998 6.87-1.054 1.628-1.172 2.999-1.172 2.999l3.426 2.707s-.073.008-.206.033a6.076 6.076 0 00-1.048.268 11.358 11.358 0 00-4.215 2.462c-1.198 1.105-2.823 3.583-2.827 5.995 0 .337.01.694.08 1.024.432 2.024 1.596 3.533 2.502 4.968 1.102 1.745 4.33 5.824 4.977 6.619l-4.025 2.277c-.056.036.369 2.332 1.495 5.09 1.483 3.62 5.36 10.35 7.488 12.07.611.49 1.327 1.003 2.136 1.517 4.064 2.79 10.468 5.31 17.957 5.295 4.529-.009 9.074-1.877 11.954-4.902 0 0 1.362-1.492 2.355-2.93.992-1.436 1.509-2.607 1.509-2.607.122-.012 7.5.236 13.437-5.245 4.198-3.877 7.886-9.36 6.928-21.315z" fill="#C2C2C2"/><path d="M81.993 48.32c-.582-7.269-2.776-13.396-4.755-17.148-1.35-2.568-2.603-4.572-3.792-5.765-.424-.446-1.297-1.248-2.177-1.337-.895-.09-2.064.103-4.5.898a121.893 121.893 0 00-3.724 1.28c-.26-.349-.777-1.04-1.177-1.558-1.346-1.744-2.971-3.885-4.913-5.403-1.36-1.062-2.584-1.89-4.368-2.599a17.739 17.739 0 00-3.332-1.057 43.298 43.298 0 00-4.01-.63c-.042.302-.17 1.228-.333 2.378-.207 1.469-.473 3.631-.488 3.75-1.655-.37-3.91-.432-5.75-.077-3.26.63-6.025 1.864-8.209 2.941a37.437 37.437 0 00-6.01 3.72c-2.208 1.665-3.635 3.232-4.461 4.508-.513.79-.795 1.5-.949 2.01-.115.38-.158.646-.173.757l3.7 2.846a4.724 4.724 0 00-1.53.242c-1.246.42-1.605.628-2.097.91-.897.512-1.589 1.068-2.28 1.72-1.126 1.148-2.656 3.638-2.652 5.797 0 .321.03.64.097.952.417 1.958 1.55 3.437 2.461 4.878.592.936 1.844 2.587 2.946 4 1.042 1.335 2.036 2.456 2.136 2.58l-4.221 2.302.073.295.001-.001a30.461 30.461 0 001.498 4.805c1.453 3.567 5.347 10.292 7.39 11.927 3.568 2.87 10.7 6.502 19.991 6.501h.21c4.209-.024 8.656-2.156 11.297-4.933 1.162-1.222 2.12-2.621 2.785-3.714a22.798 22.798 0 001.037-1.876l.02-.043.046-.014a.104.104 0 01.038-.006c.157.001 7.577-.032 12.979-4.891 1.38-1.245 7.316-6.144 7.32-17.935 0-.958-.04-1.96-.124-3.01z" fill="#FFF"/><g fill="#FC1921"><path d="M47.846 18.329c-.8 3.783-.863 11.306-1.645 15.346 5.187-2.361 8.362-4.287 13.679-6.228-3.271-4.34-6.407-8.296-12.034-9.118M37.563 68.391c-3.293-.779-4.842-2.34-6.464-3.965-.422-.423 1.369-1.946 2.032-1.612 2.296 1.16 4.545 2.502 5.68 2.641 14.714 1.792 19.04-4.037 20.433-7.402-7.035-8.959-13.643-6.427-13.643-6.427-.29 2.423-.991 4.614-.992 7.13.017.255-7.25 1.097-7.467.8-1.35-1.244-2.927-2.949-4.144-4.287-3.708 3.184-7.763 4.927-12.035 7.465.944 4.01 5.518 12.425 8.232 14.015 15.604 9.153 31.628 7.062 31.284-14.464-4.272 8.286-18.39 7.17-22.916 6.106"/><path d="M66.022 39.075c-2.043.542-5.04-3.63-3.41-5.448 2.157-2.408 7.9 4.257 3.41 5.448m4.863-11.406c-.96-.713-18.899 7.429-24.823 9.084-.553 3.863-.83 7.942-.914 11.765 5.107-1.206 10.272.723 15.47 5.757.862-2.233.862-6.696.761-9.235-.031-.862 1.946-1.225 2.106-1.019 2.3 2.891.655 10.382-.435 14.127.366 5.492.427 8.383-.684 13.318 27.388-4.262 14.106-39.65 8.519-43.797"/></g><path d="M31.722 52.364c-1.378-2.06-2.07-5.013-2.386-7.621-2.402-1.27-6.078-5.207-8.475-3.646-5.37 3.495-4.202 6.488-3.895 6.977 2.802 4.47 4.156 6.382 6.6 8.823 2.534-1.082 5.362-2.938 8.156-4.533M37.364 50.186c-2.899-1.23-3.074-7.489-.583-6.694 3.795 1.207 4.682 8.435.583 6.694m-4.447-7.644c-3.223 4.523 5.609 14.15 5.609 14.15l3.308-.3c-.263-7.167 1.381-13.21-.047-14.528-1.277-1.157-6.179-3.098-8.87.678" fill="#FC1921"/><path d="M42.489 40.127c-.127-.221 1.29-11.22 1.359-16.113-7.114-1.637-20.2 6.453-21.512 10.04 3.015 2.546 5.89 4.679 8.848 7.172 2.151-6.016 9.911-3.7 11.305-1.1" fill="#FC1921"/></g></svg>