<svg width="100" height="100" xmlns="http://www.w3.org/2000/svg"><defs><linearGradient x1="103.751%" y1="34.876%" x2="-10.554%" y2="59.676%" id="a"><stop stop-color="#60C9F3" offset="22.65%"/><stop stop-color="#5DC6F1" offset="40.62%"/><stop stop-color="#55BCEA" offset="54.9%"/><stop stop-color="#46ABDE" offset="67.91%"/><stop stop-color="#3293CE" offset="80.16%"/><stop stop-color="#1875B8" offset="91.78%"/><stop stop-color="#025BA6" offset="100%"/></linearGradient><linearGradient x1="50.3%" y1="99.822%" x2="49.285%" y2="-.205%" id="b"><stop stop-color="#60C9F3" offset="13.98%"/><stop stop-color="#5CC4F0" offset="27.96%"/><stop stop-color="#50B6E5" offset="44.43%"/><stop stop-color="#3C9ED5" offset="62.17%"/><stop stop-color="#217DBE" offset="80.66%"/><stop stop-color="#0359A4" offset="97.31%"/></linearGradient><linearGradient x1="93.822%" y1="89.555%" x2=".589%" y2="4.475%" id="c"><stop stop-color="#60C9F3" offset="22.58%"/><stop stop-color="#5BC0ED" offset="33.59%"/><stop stop-color="#4CA8DB" offset="51.4%"/><stop stop-color="#3481BF" offset="73.8%"/><stop stop-color="#134C97" offset="99.7%"/><stop stop-color="#134B97" offset="100%"/></linearGradient><linearGradient x1="80.361%" y1="108.334%" x2="19.803%" y2="-8.612%" id="d"><stop stop-color="#60C9F3" offset="22.71%"/><stop stop-color="#5AC2EE" offset="34.15%"/><stop stop-color="#4AADDF" offset="51.24%"/><stop stop-color="#2F8CC8" offset="71.85%"/><stop stop-color="#095EA7" offset="95.04%"/><stop stop-color="#0255A1" offset="99.24%"/></linearGradient><linearGradient x1="5.461%" y1="76.308%" x2="94.53%" y2="8.923%" id="e"><stop stop-color="#60C9F3" offset="15.59%"/><stop stop-color="#5CC4F0" offset="27.78%"/><stop stop-color="#50B5E6" offset="42.31%"/><stop stop-color="#3C9DD5" offset="58.04%"/><stop stop-color="#217CBE" offset="74.49%"/><stop stop-color="#075CA8" offset="87.63%"/></linearGradient><linearGradient x1=".438%" y1="33.372%" x2="103.467%" y2="80.04%" id="f"><stop stop-color="#60C9F3" offset="12.9%"/><stop stop-color="#5DC6F1" offset="31.52%"/><stop stop-color="#56BBE9" offset="47.1%"/><stop stop-color="#48AADD" offset="61.6%"/><stop stop-color="#3591CB" offset="75.43%"/><stop stop-color="#1D72B5" offset="88.66%"/><stop stop-color="#04519D" offset="100%"/></linearGradient><linearGradient x1="41.807%" y1="1.424%" x2="71.282%" y2="99.889%" id="g"><stop stop-color="#60C9F3" offset="15.05%"/><stop stop-color="#5EC6F1" offset="35.64%"/><stop stop-color="#56BDEA" offset="50.56%"/><stop stop-color="#49ADDF" offset="63.69%"/><stop stop-color="#3697D0" offset="75.79%"/><stop stop-color="#1F7ABC" offset="87.07%"/><stop stop-color="#045AA5" offset="97%"/></linearGradient><linearGradient x1="-3.061%" y1="6.49%" x2="109.946%" y2="79.808%" id="i"><stop stop-color="#FFF" offset="55.24%"/><stop stop-color="#FDFEFF" stop-opacity=".15" offset="100%"/></linearGradient><radialGradient cx="48.539%" cy="46.042%" fx="48.539%" fy="46.042%" r="51.465%" id="h"><stop stop-color="#FEDC00" offset="0%"/><stop stop-color="#FEDA01" stop-opacity=".426" offset="57.42%"/><stop stop-color="#FDD307" stop-opacity=".177" offset="82.29%"/><stop stop-color="#FBC70F" stop-opacity="0" offset="100%"/></radialGradient></defs><g fill-rule="nonzero" fill="none"><path d="M49.3 56.087c-3.4-4.252 10.03-45.298 25.953-32.826 11.504 9.015-13.43 25.91-25.896 30.671l-.057 2.155z" fill="#1D5AA9"/><path d="M32.3 42.35c-3.23-4.366 12.013-44.844 26.633-31.522 10.767 9.865-13.6 25.909-26.236 30.218L32.3 42.35z" fill="url(#a)" transform="translate(17 13)"/><path d="M52.983 56.087c-7.536 16.327 12.58 18.085-.85 27.212-12.07 8.22-19.776-16.497-5.1-27.326l5.95.114z" fill="#1D5AA9"/><path d="M36.55 42.35c-7.537 16.327 11.447 18.935-.85 27.212-12.183 8.164-20.06-16.1-5.1-27.326l5.95.114z" fill="url(#b)" transform="translate(17 13)"/><path d="M50.49 52.855c3.797 11.169 26.803 6.18 23.177 19.673-3.57 13.266-22.1 1.53-26.69-18.482l3.513-1.19z" fill="#1D5AA9"/><path d="M33.207 39.572c4.136 11.055 27.086 5.612 23.63 19.162-3.4 13.436-21.93 1.984-27.144-17.858l3.514-1.304z" fill="url(#c)" transform="translate(17 13)"/><path d="M47.997 55.917c3.286-2.438 7.82-5.443 13.996-7.824 9.86-3.799 21.194-6.406 22.554 3.515 1.87 13.493-27.314 10.375-38.137 3.061l1.587 1.248z" fill="#1D5AA9"/><path d="M29.637 44.334c5.043-5.16 35.643-22.224 38.08-6.236 1.813 11.678-19.834 11.168-39.27 4.762l1.19 1.474z" fill="url(#d)" transform="translate(17 13)"/><path d="M50.773 58.751C31.167 61.19 44.54 79.047 29.92 73.831 18.133 69.693 19.55 51.608 46.75 54.16l4.023 4.592z" fill="#1D5AA9"/><path d="M34.17 45.354c-19.38 2.098-6.913 20.466-20.57 15.25C2.38 56.297 3.4 38.665 30.203 41.16l3.967 4.195z" fill="url(#e)" transform="translate(17 13)"/><path d="M50.037 52.402c-5.27 6.122-42.16 3.174-30.884-19.56C27.03 17.026 38.193 47.81 47.6 49.568c.17-.964 2.437 2.835 2.437 2.835z" fill="#1D5AA9"/><path d="M32.923 39.628C27.37 45.524-8.33 41.33 2.947 19.218 10.37 4.707 21.363 34.754 30.6 36.738c.227-.964 2.323 2.891 2.323 2.891z" fill="url(#f)" transform="translate(17 13)"/><path d="M49.3 52.912c-7.65-.737-21.363-32.032-5.723-38.268 19.323-7.767 5.61 25.625 6.63 37.02l-.907 1.248z" fill="#1D5AA9"/><path d="M31.903 39.912C24.48 38.324 12.24 7.427 27.653 1.417c18.02-6.973 4.987 25.852 5.61 37.248l-1.36 1.247z" fill="url(#g)" transform="translate(17 13)"/><path d="M40.517 57.05s-.51-2.778 1.246-6.293c2.21-4.422 4.817-4.308 4.817-4.308s3.173-.34 5.44 1.7c3.91 3.402 4.08 5.67 4.08 5.67s1.02 3.572-1.077 5.783c-3.626 3.798-8.5 2.948-10.993 1.587-3.003-1.758-3.513-4.139-3.513-4.139z" fill="#FBC70F"/><path d="M26.01 44.9s-.963-2.607-.17-6.292c.963-4.649 3.173-4.932 3.173-4.932s2.55-.85 4.874.68c3.91 2.608 4.533 4.762 4.533 4.762s1.53 3.288.227 5.726c-2.267 4.252-6.517 4.309-8.897 3.345-2.833-1.077-3.74-3.288-3.74-3.288z" fill="url(#h)" transform="translate(17 13)"/><path d="M35.87 44.05c-.17 0-.283-.113-.397-.396-1.87-4.99-1.813-4.48-4.816-7.087-.567-.51-.397-.85.113-.907 1.133-.17 3.797.567 5.043 2.438 1.757 2.494.794 5.839.057 5.952" fill="url(#i)" transform="translate(17 13)"/></g></svg>