<svg width="100" height="100" xmlns="http://www.w3.org/2000/svg"><g fill-rule="nonzero" fill="none"><path d="M84.38 54.582a.382.382 0 00-.03-.144c-.03-.074-.193-.276-.325-.438-.178-.222-.29-.362-.305-.417a.342.342 0 01-.05-.189.74.74 0 01.04-.22c.027-.081.148-.216.343-.43.127-.14.3-.33.326-.392a.454.454 0 00.025-.162.74.74 0 00-.05-.28c-.077-.15-.23-.25-.39-.355-.204-.133-.425-.299-.51-.496a.463.463 0 01-.058-.25c0-.258.514-.54.85-.801a2.13 2.13 0 00.566-.647.609.609 0 00.035-.254c-.005-.04-.003-.077-.01-.105-.08-.286-.292-.453-.48-.6l-.047-.036-.557-.426-.134-.092c-.236-.159-.505-.339-.65-.695a.926.926 0 01-.073-.355c0-.318.172-.58.307-.787l.15-.256a.458.458 0 00-.006-.368.41.41 0 00-.222-.219 1.094 1.094 0 00-.453-.034 7.856 7.856 0 01-1.133.066c-.79-.016-2.188-.196-3.07-.496l-.049-.017a5.611 5.611 0 01-.925-.384c-.069-.035-.258-.161-.284-.167-.03 0-.301.154-.301.154l-.25.104-.555.238c-.37.169-.725.282-1.343.48 0 0-.897.286-1.06.27l-.021-.01c-.051-.039-.188-.551-.194-.65-.001-.036.031-.075.085-.101l.319-.095c.431-.116 1.077-.293 1.52-.469 2.103-.83 3.497-1.613 4.966-3.255.434-.485.981-1.332 1.06-1.5.08-.167.097-.264.097-.264a.772.772 0 00-.13-.605c-.095-.14-.214-.18-.356-.239 0 0-.214-.065-.317-.19-.086-.103-.133-.368-.167-.568-.065-.362.066-1.56.14-1.85.081-.311.17-.754.013-.986-.198-.294-.765-.44-1.102-.472l-.166-.017c-.206-.028-.654-.129-.818-.233a.826.826 0 01-.315-.336c-.127-.288-.02-.611.128-1.058l.03-.09c.059-.18.125-.382.026-.588-.046-.098-.244-.128-.436-.158l-.36-.076c-.373-.128-.82-.396-.95-.768a1.216 1.216 0 01-.03-.793l.054-.173c.2-.654.616-2.015.234-2.248-.09-.056-.24-.15-.532-.163h-.564s-.123.007-.152.007c-.797.002-1.7.005-2.031-.478-.22-.322-.28-.688-.302-1.176l.014-.38c.025-.33.052-.703-.105-.935-.127-.187-.652-.162-1.158-.137-.482.023-.94.047-1.263-.09-.688-.295-.772-.907-.838-1.4-.039-.283-.072-.527-.21-.628-.12-.089-.328-.021-.568.056-.384.125-.862.28-1.252-.152-.265-.293-.392-.76-.526-1.254-.173-.639-.353-1.3-.846-1.457-.282-.09-.594.06-.77.145-.36.174-.615.318-.94.533l-.224.164-.304.217-.106.072c-.202.145-.507.362-.876.215-.363-.146-.453-.587-.527-.941l-.049-.219a.48.48 0 00-.205-.297c-.19-.146-.718.012-1.143.139l-.144.043c-.21.061-.627.12-.867-.042-.204-.14-.29-.348-.38-.57l-.064-.151c-.286-.641-.866-1.554-1.289-1.444-.15.04-.464.29-.672.535l-.244.317c-.284.38-.637.852-.902.967a.673.673 0 01-.546.03c-.144-.052-.207-.18-.267-.304l-.063-.118-.19-.373c-.068-.149-.127-.278-.204-.337a.475.475 0 00-.565-.017c-.114.076-.174.267-.25.509l-.063.199-.13.59c-.147.483-.3 1.144-.498 1.57-.482 1.04-.803 1.694-1.587 2.745-.243.328-.865.906-.95.993l-.22.251.003.036.044.5c.005.104.012.24.012.416 0 .202-.01.454-.043.764-.063.583-.207 1.503-.244 1.56l-.019.027-.01.01c-.028.023-.05.053-.376-.006-.299-.054-.318-.089-.336-.122l-.022-.026.033-.222c.046-.27.144-.835.168-1.386.05-1.104-.077-2.169-.436-3.674-.321-1.349-.915-2.731-1.868-4.15a4.435 4.435 0 00-.61-.736l-.228-.161c-.098-.05-.371-.1-.525-.026-.183.088-.34.363-.455.564l-.102.172-.027.041-.36.505c-.06.07-.184.215-.43.264-.778.156-1.228-.332-1.691-.707l-.33-.366-.134-.106c-.22-.182-.495-.408-.911-.366-.227.022-.543.544-.823 1.004-.272.448-.553.911-.857 1.161-.498.41-1.662.238-2.2.08l-.16-.055c-.197-.072-.421-.154-.633-.07-.338.132-.386.37-.467.766l-.045.215c-.099.439-.33.724-.452.818-.125.095-.402.165-.557.162-.561-.008-.943-.062-1.302-.25l-.251-.125-.675-.3c-.274-.119-.79-.278-1.013-.198-.718.258-.82 1.19-.918 2.091l-.08.641c-.046.293-.118.498-.235.666-.391.563-1.232.254-1.755.063-.094-.034-.415-.138-.578-.011-.133.093-.163.343-.19.585l-.08.431c-.048.14-.196.416-.318.527l-.2.108c-.218.042-1.11.148-1.654.084l-.718-.071c-.99-.068-1.171.524-1.22 1.048a2.072 2.072 0 00-.006.166c0 .162.022.305.048.476l.118.543c.106.442.208 1.036.208 1.532 0 .338-.06.655-.228.907-.242.361-.679.417-1.171.481-.164.021-.286.04-.358.09-.201.137-.236.486-.274.855-.043.432-.088.879-.41 1.106-.321.227-.786.277-1.234.325-.27.028-.548.058-.793.125-.26.072-.48.22-.517.29a.725.725 0 00-.042.492l.105.279.024.057.296.59c.123.22.4.514.504.817l.02.059c.051.138.126.342.126.563a.545.545 0 01-.041.212c-.163.49-.754.805-1.268.899-.803.146-.82.359-.832.51l-.002.032c0 .156.108.22.336.34l.079.042.463.277.34.222.682.462c.865.64 1.536 1.34 1.734 1.583l.1.123c.218.265.548.666.705.938.33.57.682 1.055.76 1.202.026.03.048.044.048.044s1.147.303 1.644.491c.475.18 1.476.644 1.555.69l.045.026s.02.039.018.05c-.024.126-.207.624-.269.655l-.035.002-.132-.052s-.838-.429-1.338-.59c-.777-.25-1.41-.439-2.494-.532l-.286-.028c-1.301-.077-2.302-.218-4.055.23-.65.167-1.653.544-1.842 1.07-.147.41.15.628.477.795l.19.09c.39.18.977.505 1.078.913.112.453-.139.83-.275 1.034-.385.58-.866 1.126-1.33 1.458l-.328.239c-.097.072-.29.265-.302.381-.035.333.26.505.601.703l.287.174c.124.083.474.483.534.611.334.713-.05 1.418-.176 1.592l-.081.105c-.158.198-.396.496-.322.8.08.324.344.571.723.678l.196.045.37.116a.933.933 0 01.405.485c.08.21.06.509.003.712-.074.27-.449.72-.78 1.12l-.356.45c-.204.302-.863 1.287-.69 1.678.063.144.178.328.507.475.563.252.97.434 1.317.553l.247.076c.4.12.948.283 1.148.57.42.61.103 1.082-.228 1.476-.146.175-.297.396-.161.57.12.175.356.235.607.299.346.088.739.188.853.63.134.514-.034.85-.157 1.096l-.074.16-.22.414-.177.442c-.044.117-.071.622.085.853.261.39.948.566 2.121.58l.385-.007c.475-.014.965-.028 1.212.129 0 0 .15.094.195.21.065.175-.028.56-.06.684-.033.124-.061.33-.043.477.019.147.09.192.15.232a.567.567 0 00.277.084l.152-.01c.284-.026.693-.094.822-.044.433.169.179.737.047 1.053l-.168.388c-.17.388-.33.755-.468 1.263-.047.169-.094.507-.061.634.034.131.13.228.205.286.074.059.397.124.625.055l.126-.047c.24-.094.641-.251.926-.08.388.236.25.765.2 1.255-.023.236-.073.297-.039.468.012.066.04.227.13.26.438.16 1.076-.644 1.462-.959.947-.77 1.977-1.147 2.666-1.434.638-.266 1.114-.363 1.422-.45l.788-.146.017-.003c.027-.038.485-.626.485-.626.415-.541 1.213-1.346 1.543-1.585l.058-.027.038.003c.122.013.382.414.403.473 0 0-.005.056.001.03-.021.055-.073.107-.253.275l-.169.175c-.237.25-.646.68-.89 1.023-.504.707-.812 1.15-1.105 1.938-.127.342-.235.617-.44 1.44-.238.955-.267 1.756-.294 2.206-.022.352-.006 1.078.04 1.663.024.307.167.827.488.923.205.062.513.012.63-.054.408-.225.96-.547 1.106-.613.176-.08.36-.262.765-.03.184.106.367.532.386 1.105.023.678-.036 1.62.339 1.894.188.137.452.213.707.084l.34-.21c.398-.266.686-.466 1.371-.34.378.069.6.394.815.76.149.254.302.515.49.628.064.038.208.023.288-.017.052-.025.283-.208.421-.338l.228-.253c.192-.23.397-.443.7-.527.437-.122.657-.131 1.01.139.154.118.309.309.44.541.38.667.478 1.2.865 1.546l.056.051c.172.16.407.377.744.287.438-.117.737-.446 1.054-.794.34-.372.911-.717 1.452-.835.778-.17 1.384.92 1.39.932.168.304.753.961.982.95.342-.02.655-.383.986-.767.271-.316.553-.643.881-.807.56-.279.909 0 1.364.26.252.144.558.343.686.336a.467.467 0 00.341-.205c.1-.14.208-.303.3-.452.171-.271.38-.591.785-.7.297-.08.433.029.593.096l.253.137c.292.173 1.443 1.039 1.867 1.167.286.086.464.054.594-.07.276-.265.427-.885.597-1.31.218-.548.321-.976.842-1.171.395-.148.85.218.986.307.26.17.501.35.708.33.199-.017.337-.162.368-.256.032-.103.08-.375.086-.534.01-.277.02-.565.151-.692.284-.278.754-.03 1.194.188.466.233.922.382 1.189.307.069-.02.323-.13.33-.47.015-.612.025-1.419.243-1.555.21-.13.35-.012.667.019.262.025.362.005.417-.047a.457.457 0 00.117-.263.597.597 0 00-.006-.094c-.05-.232-.044-.338-.266-.68-.245-.379-.657-.998-.826-1.326-.256-.495-.442-1.12-.58-1.787a9.352 9.352 0 01-.137-1.585c.012-.228.021-.377.055-.52.038-.16.059-.22.075-.266l-.018-.02c-.399-.4-.709-.764-.873-.94a18.126 18.126 0 01-.668-.84c-.08-.113-.2-.279-.227-.336l-.002-.024c-.019-.02.053-.108.23-.269.184-.166.308-.24.333-.215l.021.008c.03.034.16.202.287.384.04.058.116.145.323.412.194.25.46.548.785.864.37.359 1.463 1.369 3.156 2.117 1.03.455 1.864.69 2.695.883.545.126.983.135 1.158.09.231-.058.241-.342.23-.801-.01-.42-.021-.853.284-1.067.268-.188 1.07-.394 1.519-.325.212.032.733.077.813.04.115-.065.158-.177.158-.325 0-.149-.043-.335-.098-.55-.048-.187-.092-.357-.092-.494 0-.074.013-.137.044-.19.1-.272.39-.333.645-.387l.111-.024.27-.057c.412-.082.685-.235.866-.492.073-.106.099-.267.099-.45 0-.206-.032-.441-.06-.66-.03-.219-.058-.432-.058-.616 0-.248.038-.459.204-.552.497-.275 1.048-.357 1.534-.431.577-.087 1.076-.162 1.328-.52.082-.117.126-.311.126-.51 0-.125-.018-.252-.054-.362l-.244-.555-.15-.314c-.135-.31-.278-.596-.376-.934l-.02-.07c-.053-.177-.118-.394-.118-.601 0-.132-.015-.26.057-.372.288-.448.839-.487 1.241-.515.24-.016.465-.032.504-.125a.722.722 0 00.045-.277c0-.297-.097-.697-.179-1.037l-.01-.045a1.187 1.187 0 01-.03-.269c0-.258.027-.594.115-.718.223-.316.822-.63 1.22-.838l.121-.064.166-.083c.25-.121.466-.226.537-.47a.504.504 0 00.02-.142c0-.348-.287-.808-.484-1.125l-.195-.326c-.07-.11-.167-.265-.167-.454 0-.048.006-.097.02-.148.106-.392.318-.672.551-.943l.217-.262.233-.258c.18-.185.34-.35.34-.542" fill="#D9222A"/><path fill="#FFF" d="M45.929 68.135H56.11l11.287-30.462h-9.533L51.11 59.596l-6.842-21.923h-9.819l11.48 30.462"/></g></svg>